<?xml version="1.0" encoding="UTF-8" standalone="no"?>
<svg
   width="135.46666mm"
   height="135.46632mm"
   viewBox="0 0 135.46666 135.46632"
   version="1.1"
   id="svg130"
   sodipodi:docname="elegansicon.svg"
   inkscape:version="1.1.2 (1:1.1+202202050950+0a00cf5339)"
   inkscape:export-filename="/home/hayashi/Projects/imagesubtractor/icon/elegansicon.png"
   inkscape:export-xdpi="96.000008"
   inkscape:export-ydpi="96.000008"
   xmlns:inkscape="http://www.inkscape.org/namespaces/inkscape"
   xmlns:sodipodi="http://sodipodi.sourceforge.net/DTD/sodipodi-0.dtd"
   xmlns:xlink="http://www.w3.org/1999/xlink"
   xmlns="http://www.w3.org/2000/svg"
   xmlns:svg="http://www.w3.org/2000/svg"
   xmlns:rdf="http://www.w3.org/1999/02/22-rdf-syntax-ns#"
   xmlns:cc="http://creativecommons.org/ns#"
   xmlns:dc="http://purl.org/dc/elements/1.1/">
  <defs
     id="defs124">
    <linearGradient
       inkscape:collect="always"
       id="linearGradient6473">
      <stop
         style="stop-color:#aa0000;stop-opacity:1"
         offset="0"
         id="stop6471" />
      <stop
         style="stop-color:#ffffff;stop-opacity:1"
         offset="1"
         id="stop6469" />
    </linearGradient>
    <linearGradient
       inkscape:collect="always"
       id="linearGradient4021">
      <stop
         style="stop-color:#fff6d5;stop-opacity:1;"
         offset="0"
         id="stop4017" />
      <stop
         style="stop-color:#ffffff;stop-opacity:1"
         offset="1"
         id="stop4019" />
    </linearGradient>
    <linearGradient
       inkscape:collect="always"
       xlink:href="#linearGradient4021"
       id="linearGradient4023"
       x1="63.197441"
       y1="164.26842"
       x2="125.24396"
       y2="95.861794"
       gradientUnits="userSpaceOnUse"
       gradientTransform="matrix(0.83430769,0,0,0.82486011,16.002789,21.321652)" />
    <radialGradient
       inkscape:collect="always"
       xlink:href="#linearGradient6473"
       id="radialGradient5007-3-3"
       cx="96.163048"
       cy="124.09911"
       fx="96.163048"
       fy="124.09911"
       r="31.423494"
       gradientUnits="userSpaceOnUse"
       gradientTransform="matrix(-2.676187,0.02179354,-0.01271818,-1.6319155,352.17992,327.35688)" />
    <clipPath
       clipPathUnits="userSpaceOnUse"
       id="clipPath9117">
      <rect
         ry="15.574886"
         y="85.661865"
         x="58.261612"
         height="76.432312"
         width="75.567001"
         id="rect9119"
         style="fill:none;stroke:none;stroke-width:0.799999;stroke-linecap:round;stroke-linejoin:round;stroke-miterlimit:3;stroke-dasharray:none;paint-order:fill markers stroke" />
    </clipPath>
  </defs>
  <sodipodi:namedview
     id="base"
     pagecolor="#ffffff"
     bordercolor="#666666"
     borderopacity="1.0"
     inkscape:pageopacity="0.0"
     inkscape:pageshadow="2"
     inkscape:zoom="0.70710678"
     inkscape:cx="397.39401"
     inkscape:cy="251.02291"
     inkscape:document-units="mm"
     inkscape:current-layer="g1018"
     inkscape:document-rotation="0"
     showgrid="false"
     inkscape:window-width="1920"
     inkscape:window-height="1017"
     inkscape:window-x="0"
     inkscape:window-y="32"
     inkscape:window-maximized="1"
     inkscape:pagecheckerboard="1" />
  <metadata
     id="metadata127">
    <rdf:RDF>
      <cc:Work
         rdf:about="">
        <dc:format>image/svg+xml</dc:format>
        <dc:type
           rdf:resource="http://purl.org/dc/dcmitype/StillImage" />
      </cc:Work>
    </rdf:RDF>
  </metadata>
  <g
     inkscape:label="Layer 1"
     inkscape:groupmode="layer"
     id="layer1"
     transform="translate(-57.590444,-84.983064)">
    <g
       id="g1018"
       transform="matrix(1.4425356,0,0,1.4425356,-12.273561,-24.395791)"
       style="display:inline">
      <g
         id="g1051"
         transform="matrix(1.0970874,0,0,1.0970874,-9.2607538,-11.920222)">
        <rect
           ry="15.398519"
           y="84.994865"
           x="57.602161"
           height="75.566803"
           width="75.567169"
           id="rect990"
           style="display:inline;fill:#803300;stroke:none;stroke-width:1.34233;stroke-linecap:round;stroke-linejoin:round;stroke-miterlimit:3;stroke-dasharray:none;paint-order:fill markers stroke" />
        <ellipse
           style="display:inline;opacity:0.3;fill:url(#radialGradient5007-3-3);fill-opacity:1;stroke:none;stroke-width:1.44331;stroke-miterlimit:3;stroke-dasharray:none"
           id="path4511-5-2"
           cx="94.723885"
           cy="126.77077"
           rx="50.163174"
           ry="51.282112"
           clip-path="url(#clipPath9117)"
           transform="matrix(1.0000022,0,0,0.98867835,-0.6595783,0.3027465)" />
      </g>
      <g
         id="g1136"
         transform="matrix(1.0970874,0,0,1.0970874,-11.410438,-13.0797)">
        <path
           sodipodi:nodetypes="cccssssssccsszzzzzcsscsccc"
           id="path138"
           d="m 78.762512,147.328 c 8.361907,4.95216 20.061591,7.43521 29.059038,4.42167 8.48021,-2.93204 18.24701,-14.2824 8.08456,-18.59546 -3.95618,-1.49553 -21.227076,-8.73633 -18.085397,-15.63877 3.141677,-6.90243 6.166997,-9.8935 5.236137,-14.84025 -0.93088,-4.946748 -3.14168,-7.477644 -6.516085,-7.937806 -3.37439,-0.460173 -9.149625,0.230076 -11.244077,3.796333 -2.094449,3.566263 -7.95505,8.397983 -6.675108,12.194323 1.27994,3.79634 8.145084,-5.06179 9.541385,-5.98212 1.396301,-0.92033 3.929542,-5.108039 6.718299,-4.06259 4.443799,2.35873 1.154544,5.61833 1.154544,5.61833 -1.794543,2.90611 -4.170546,7.14296 -4.963885,10.86866 -1.396303,6.55732 1.163589,9.54838 4.188901,12.30935 3.025317,2.76099 6.402536,4.55052 8.550476,5.58252 2.14794,1.032 4.13888,1.2626 5.42284,2.05007 1.28396,0.78747 2.48391,2.70101 2.16742,3.81424 -0.31649,1.11323 -1.9484,2.7103 -3.02995,3.90792 -1.08155,1.19762 -3.71688,1.94114 -5.63829,2.47707 -1.92141,0.53593 -3.466207,0.88388 -7.355583,0.41856 -0.888377,-0.26047 -1.926064,-0.28185 -2.889177,-0.43308 -1.281965,-0.2013 -2.511591,-0.51432 -3.855296,-0.77923 -5.034001,-0.99248 -10.033206,-2.54793 -11.760223,-6.87259 -0.432053,-1.01455 -0.296984,-2.15225 -0.193575,-3.02116 0.364745,-3.06478 3.983219,-5.35643 9.495776,-8.03533 -0.205193,0.013 -1.427938,0.54616 -4.733025,2.03531 -7.659318,3.57494 -9.727231,11.95041 -2.679705,16.70403 z"
           style="display:inline;fill:url(#linearGradient4023);fill-opacity:1;stroke:none;stroke-width:0.414785;stroke-linecap:butt;stroke-linejoin:miter;stroke-miterlimit:4;stroke-dasharray:none;stroke-opacity:1" />
        <path
           sodipodi:nodetypes="czc"
           id="path165"
           d="m 76.825895,142.37122 c 0,0 -0.407874,-0.94941 -0.35291,-1.71241 0.05496,-0.76301 0.0124,-1.31243 0.122015,-1.37674"
           style="display:inline;opacity:0.8;fill:none;stroke:#666666;stroke-width:0.315646px;stroke-linecap:butt;stroke-linejoin:bevel;stroke-opacity:1;paint-order:normal" />
        <path
           sodipodi:nodetypes="ccscscssssssscssssssccc"
           id="path161"
           d="m 79.345938,111.57361 10.44784,-12.068965 c 0,0 1.385526,1.122415 3.643868,0.351591 2.258344,-0.770841 2.014263,-2.228934 2.014263,-2.228934 0,0 0.512931,0.04932 0.862437,0.288546 0.34951,0.239225 0.944388,0.946667 0.944388,0.946667 0,0 -0.245373,1.126618 -0.29915,1.658235 -0.05381,0.53161 0.430161,1.38218 0.9141,2.0467 0.483932,0.66452 0.134415,1.56825 0.537695,1.94039 0.403271,0.37212 2.070141,0.61134 2.796051,0.31896 0.7259,-0.29238 1.15606,-1.01006 1.20982,-1.3556 0.0538,-0.34556 -0.0269,-1.75432 -0.24196,-2.2062 -0.21508,-0.45187 -0.96786,-2.711217 -1.66688,-2.870702 -0.699005,-0.159483 -2.505489,-0.254584 -2.505489,-0.254584 0,0 -0.263671,-0.170704 -0.935793,-0.595993 -0.672125,-0.425288 -1.356249,-0.663875 -1.571329,-0.557553 -0.21508,0.106324 -1.036521,-0.877797 -1.46668,-1.303089 -0.430161,-0.425289 -1.559333,-0.478452 -2.070149,-0.318966 -0.510816,0.159483 -1.209827,0.07973 -1.82818,0.797417 -0.618357,0.717678 -1.182944,1.887222 -1.048518,2.099867 0.134426,0.212644 0.32262,0.744258 0.32262,0.744258 L 78.919729,111.20614 Z"
           style="display:inline;opacity:0.75;fill:#917c6f;stroke:none;stroke-width:0.273116px;stroke-linecap:butt;stroke-linejoin:miter;stroke-opacity:1" />
      </g>
    </g>
  </g>
</svg>
